<svg xmlns="http://www.w3.org/2000/svg" xmlns:xlink="http://www.w3.org/1999/xlink" viewBox="0 0 1036.96 1043.7"><defs><style>.cls-1{stroke:#010101;fill:url(#linear-gradient);}.cls-2{stroke:#dabeb3;fill:url(#linear-gradient-2);}</style><linearGradient id="linear-gradient" x1="77.94" y1="144.78" x2="692.52" y2="670.82" gradientUnits="userSpaceOnUse"><stop offset="0" stop-color="#2e3192" stop-opacity="0.6"/><stop offset="0.03" stop-color="#323192" stop-opacity="0.6"/><stop offset="0.43" stop-color="#662b90" stop-opacity="0.6"/><stop offset="0.76" stop-color="#86288f" stop-opacity="0.6"/><stop offset="1" stop-color="#91278f" stop-opacity="0.6"/></linearGradient><linearGradient id="linear-gradient-2" x1="318.3" y1="503.21" x2="734.4" y2="503.21" gradientUnits="userSpaceOnUse"><stop offset="0" stop-color="#fff"/><stop offset="0" stop-color="#323032"/><stop offset="1" stop-color="#231f20"/></linearGradient></defs><g id="Layer_2" data-name="Layer 2"><rect class="cls-1" x="0.5" y="0.5" width="1035.96" height="1042.7"/></g><g id="Layer_1" data-name="Layer 1"><path id="path26" class="cls-2" d="M344.57,77.18c-32,13-35.95,104.83-5.22,171.71,9.28,20.41,34,59.21,66.33,107.37-32.62,87.82-74.14,181.47-37.77,264.58,32.39,76.58,121.41,153.24,231.44,104A198.46,198.46,0,0,0,642.55,699c34.32,50.94,60.16,91.69,69,111.89,35.18,79.41-65.91,133-90.93,89.5,21.7-10.4,31.57-35.57,22.1-57.21C633,821,606.8,811,584.08,821a45.15,45.15,0,0,0-25,27.7c-.1.25-.23.51-.32.76a37.68,37.68,0,0,0-1.75,8.41c-1.21,9.91.73,22.55,7.63,38.78C593.79,963.22,781,932.37,723.49,801,716,783.22,688.79,741.69,653,690,754.13,594,645.84,428.73,534.89,476.29a114.48,114.48,0,0,0-23.43,14c-19.57-27.56-38.52-54.32-55.67-79,23.94-59.63,37.24-129.07-6.65-227.11C418.34,113.39,370,67,344.57,77.18ZM382,142.27c13.72-7.65,30.92.67,43.73,29.95,23.17,49.77,7.16,109.1-15.45,171.62-14.6-22.43-25.81-40.88-31.19-52.38C345.86,212.39,359.09,155,382,142.27ZM451,422.64c16.65,24.1,34.32,49.43,52.13,74.94-61.8,58.07-52.27,175.47,71.48,175.71-86.82-26.17-83.59-103.53-42.84-134.6,36.53,52.24,72.45,103.84,102.88,148.7-10.4,9.7-23.65,18.48-40.35,25.93-41.89,18.33-137.26,28.31-181.44-72.63C375.87,556.15,419.44,496.14,451,422.64Zm90.36,109.68c1.78-.91,3.78-1.73,5.65-2.47,76.2-33.35,157.9,75.07,97.23,147.71C613.37,633.25,577.31,582.73,541.38,532.32Z" transform="translate(7.23 12.65)"/></g></svg>